#tb 0: 1/25
#media_type 0: video
#codec_id 0: rawvideo
#dimensions 0: 352x288
#sar 0: 0/1
0,          0,          0,        1,   152064, 0xfbd72a27
0,          1,          1,        1,   152064, 0x06d10a14
0,          2,          2,        1,   152064, 0x629e9a71
0,          3,          3,        1,   152064, 0xd899f14b
0,          4,          4,        1,   152064, 0x2de2e162
0,          5,          5,        1,   152064, 0x1987b281
0,          6,          6,        1,   152064, 0x36b68a47
0,          7,          7,        1,   152064, 0x8d53cd7e
0,          8,          8,        1,   152064, 0x3aa8daa1
0,          9,          9,        1,   152064, 0xf329f3f4
0,         10,         10,        1,   152064, 0xdff21c52
0,         11,         11,        1,   152064, 0xe2550bc3
0,         12,         12,        1,   152064, 0xb1ae65ef
0,         13,         13,        1,   152064, 0x7401d246
0,         14,         14,        1,   152064, 0x62c46ff5
0,         15,         15,        1,   152064, 0xf5fd16df
0,         16,         16,        1,   152064, 0x0052369e
0,         17,         17,        1,   152064, 0x2b184fc2
0,         18,         18,        1,   152064, 0xf244a268
0,         19,         19,        1,   152064, 0x51210f57
0,         20,         20,        1,   152064, 0x5f553ffc
0,         21,         21,        1,   152064, 0x61da8757
0,         22,         22,        1,   152064, 0x31dfa701
0,         23,         23,        1,   152064, 0x7af0ccad
0,         24,         24,        1,   152064, 0xa5766f36
0,         25,         25,        1,   152064, 0xa1230c4f
0,         26,         26,        1,   152064, 0x5166dca5
0,         27,         27,        1,   152064, 0x3eff1d08
0,         28,         28,        1,   152064, 0x738a44ea
0,         29,         29,        1,   152064, 0x8ff6550f
0,         30,         30,        1,   152064, 0x4b5d3a23
0,         31,         31,        1,   152064, 0x354c4776
0,         32,         32,        1,   152064, 0x6c02557b
0,         33,         33,        1,   152064, 0xdc949adc
0,         34,         34,        1,   152064, 0xfe1e85f1
0,         35,         35,        1,   152064, 0xed52dbf2
0,         36,         36,        1,   152064, 0x29bb4cd9
0,         37,         37,        1,   152064, 0x61cc6102
0,         38,         38,        1,   152064, 0x833b2351
0,         39,         39,        1,   152064, 0x58af469f
0,         40,         40,        1,   152064, 0x3fe6351b
0,         41,         41,        1,   152064, 0x51987aaf
0,         42,         42,        1,   152064, 0xb0636ca6
0,         43,         43,        1,   152064, 0x83ebb949
0,         44,         44,        1,   152064, 0x81168854
0,         45,         45,        1,   152064, 0x251ef894
0,         46,         46,        1,   152064, 0xa40bc6c4
0,         47,         47,        1,   152064, 0x176a5d4a
0,         48,         48,        1,   152064, 0x8d04302f
0,         49,         49,        1,   152064, 0x444f8690
